<svg xmlns="http://www.w3.org/2000/svg" viewBox="0 0 267.9 71.96"><defs><style>.cls-1{fill:none;stroke:#639ad2;stroke-miterlimit:10;stroke-width:5px;}.cls-2,.cls-3{fill:#639ad2;}.cls-3{font-size:24px;font-family:BerlinSansFBDemi-Bold, Berlin Sans FB Demi;font-weight:700;}.cls-4{fill:#231f20;}</style></defs><g id="Layer_2" data-name="Layer 2"><g id="Layer_1-2" data-name="Layer 1"><path class="cls-1" d="M1.37,9.69S22.68-4.32,44,50.55l56-3.11"/><path class="cls-2" d="M48.91,42.81l.22.37.15,0Z"/><path class="cls-2" d="M94.78,2c-3.43-2.4-7.85-2.9-23.22-.26A303.88,303.88,0,0,0,30.43,11.89l14.37,24h0c4.75,2.32,7.93,2.06,10,1.37,6.64-2.27,6.66-11,15-17.5A26.57,26.57,0,0,1,79.6,15a38.25,38.25,0,0,1-4,12.71A45.1,45.1,0,0,1,63.66,42l35.66-2.87C100,36.63,106.63,10.33,94.78,2Z"/><circle class="cls-2" cx="61.57" cy="64.69" r="7.26"/><circle class="cls-2" cx="90.37" cy="62.49" r="7.26"/><text class="cls-3" transform="translate(108.72 37.77)">Senay <tspan class="cls-4" x="68.59" y="0">Shoping </tspan></text></g></g></svg>